<?xml version="1.0" encoding="UTF-8"?>
<svg width="17px" height="17px" viewBox="0 0 17 17" version="1.1" xmlns="http://www.w3.org/2000/svg" xmlns:xlink="http://www.w3.org/1999/xlink">
    <!-- Generator: Sketch 52.5 (67469) - http://www.bohemiancoding.com/sketch -->
    <title>Page 1 Copy 9</title>
    <desc>Created with Sketch.</desc>
    <g id="Symbols" stroke="none" stroke-width="1" fill="none" fill-rule="evenodd" stroke-linecap="round" stroke-linejoin="round">
        <g id="unlike/button" transform="translate(-7.000000, -8.000000)" stroke="#CDCDCD" stroke-width="1.12">
            <path d="M22.6627225,13.8400312 C22.6938182,13.5634895 22.7027027,13.3927167 22.7027027,13.3927167 C22.7027027,10.9677432 21.3755836,9 19.1999967,9 C17.0244099,9 15.2608407,10.9677432 15.2608407,13.3927167 C15.2608407,10.9677432 13.4983821,9 11.3227953,9 C9.14720839,9 8,10.9677432 8,13.3927167 C8,13.3927167 8.00888448,13.5634895 8.03998016,13.841133 C8.0610808,14.0592814 8.08884479,14.2730229 8.13659887,14.479052 C8.52529484,16.6550277 12.3056408,19.5504528 15.2608407,23.7195122 C18.6913603,19.4689225 22.1774079,16.6550277 22.5661038,14.479052 C22.6149685,14.2730229 22.6416219,14.0581797 22.6627225,13.8400312 Z" id="Page-1-Copy-9"></path>
        </g>
    </g>
</svg>