<?xml version="1.0" encoding="UTF-8"?>
<svg width="30px" height="30px" viewBox="0 0 30 30" version="1.1" xmlns="http://www.w3.org/2000/svg" xmlns:xlink="http://www.w3.org/1999/xlink">
    <!-- Generator: Sketch 52.5 (67469) - http://www.bohemiancoding.com/sketch -->
    <title>Artboard</title>
    <desc>Created with Sketch.</desc>
    <g id="Artboard" stroke="none" stroke-width="1" fill="none" fill-rule="evenodd">
        <path d="M14.8005998,18.2654322 C16.6539827,18.2654322 18.1603063,19.8812019 18.1603063,21.8656321 L18.1603063,23.3057121 C18.1603063,24.4966582 19.1294802,25.465832 20.3204263,25.465832 L22.0009996,25.465832 C23.1919457,25.465832 24.1611196,24.4966582 24.1611196,23.3057121 L24.1611196,14.6652322 C24.1611196,13.2899559 23.2581894,11.3976908 22.1896501,10.5322027 L16.5862989,5.99595084 C15.651687,5.23990885 13.9495125,5.23990885 13.0149006,5.99595084 L7.41154945,10.5322027 C6.34301011,11.3976908 5.44007997,13.2899559 5.44007997,14.6652322 L5.44007997,23.3057121 C5.44007997,24.4966582 6.40925379,25.465832 7.60019992,25.465832 L9.28077325,25.465832 C10.4717194,25.465832 11.4408932,24.4966582 11.4408932,23.3057121 L11.4408932,21.8656321 C11.4408932,19.8812019 12.9472168,18.2654322 14.8005998,18.2654322 M22.0009996,26.905912 L20.3204263,26.905912 C18.3359961,26.905912 16.7202264,25.2915823 16.7202264,23.3057121 L16.7202264,21.8656321 C16.7202264,20.674686 15.8590585,19.7055121 14.8005998,19.7055121 C13.742141,19.7055121 12.8809732,20.674686 12.8809732,21.8656321 L12.8809732,23.3057121 C12.8809732,25.2915823 11.2652034,26.905912 9.28077325,26.905912 L7.60019992,26.905912 C5.61576973,26.905912 4,25.2915823 4,23.3057121 L4,14.6652322 C4,12.8579319 5.1002211,10.5509238 6.50573915,9.4132606 L12.1090903,4.8770087 C13.5549306,3.70766377 16.0462689,3.70766377 17.4921092,4.8770087 L23.0954604,9.4132606 C24.5009784,10.5509238 25.6011995,12.8579319 25.6011995,14.6652322 L25.6011995,23.3057121 C25.6011995,25.2915823 23.9854298,26.905912 22.0009996,26.905912" id="browse/button" stroke="#4EE3ED" fill="#4EE3ED"></path>
    </g>
</svg>